<?xml version="1.0" encoding="utf-8"?>
<!-- Generator: Adobe Illustrator 19.0.0, SVG Export Plug-In . SVG Version: 6.00 Build 0)  -->
<svg version="1.1" id="layer" xmlns="http://www.w3.org/2000/svg" xmlns:xlink="http://www.w3.org/1999/xlink" x="0px" y="0px"
	 viewBox="-153 -46 652 652" style="enable-background:new -153 -46 652 652;" xml:space="preserve">
<style type="text/css">
	.st0{fill:#825C9D;}
	.st1{fill:#1EA459;}
	.st2{fill:#FFFFFF;}
	.st3{fill:#A20A77;}
	.st4{fill:#8668A5;}
</style>
<path id="XMLID_8_" d="M36.3,293.3v1h-18v-1h1.2c0.8,0,1.6-0.2,2.4-0.5c0.5-0.3,0.8-0.7,1-1.2c0.3-1,0.4-2.1,0.3-3.1v-22.3
	c0.1-1.1,0-2.2-0.3-3.2c-0.3-0.5-0.7-0.9-1.2-1.2c-0.7-0.4-1.5-0.6-2.3-0.5h-1.2v-1h18v1H35c-0.8,0-1.6,0.2-2.4,0.5
	c-0.5,0.3-0.8,0.7-1.1,1.2c-0.3,1-0.4,2.1-0.3,3.2v22.3c-0.1,1.1,0,2.2,0.3,3.2c0.3,0.5,0.7,0.9,1.2,1.2c0.7,0.4,1.5,0.6,2.2,0.5
	H36.3z M106.7,260.4H94.6v1c0.8-0.1,1.6,0.1,2.4,0.4c0.8,0.4,1.4,1,1.9,1.7l0.8,0.9v23.9c0.1,1.3-0.3,2.7-1.1,3.8
	c-1.1,0.9-2.6,1.3-4,1.2v1.1h12.3v-1h-0.8c-1.1,0-2.2-0.4-3.1-1.1c-1.1-1-1.6-2.5-1.4-4v-21.6l23.3,28.3h0.9v-28.3
	c-0.1-1.1,0.1-2.3,0.4-3.3c0.3-0.6,0.7-1.1,1.2-1.4c0.9-0.5,1.9-0.7,2.9-0.8v-1h-11.4v1c1.5-0.2,3,0.4,4.1,1.4
	c0.7,1.2,1,2.7,0.9,4.1v14.6l-17.1-21L106.7,260.4z M175.3,260.3h-14.5v1h1.1c0.8,0,1.6,0.2,2.3,0.5c0.5,0.2,0.9,0.6,1.2,1.1
	c0.3,1.1,0.4,2.1,0.3,3.2V290c-0.1,0.7-0.3,1.3-0.7,1.8c-0.4,0.5-1,0.9-1.6,1.1c-0.7,0.2-1.4,0.3-2.1,0.3h-0.3v1h11.9v-1
	c-1.2,0.1-2.4-0.2-3.5-0.8c-0.7-0.5-1.2-1.2-1.4-2.1c-0.1-1-0.1-2.1,0-3.1v-23.8l13.5,30.7h0.6l13.3-31v25.2c0.1,1.1,0,2.1-0.3,3.1
	c-0.2,0.5-0.5,0.9-1,1.2c-0.8,0.4-1.7,0.6-2.5,0.5h-1.1v1.2h18v-1h-1.1c-0.8,0-1.6-0.2-2.3-0.5c-0.5-0.3-0.9-0.7-1.2-1.2
	c-0.3-1.1-0.4-2.2-0.3-3.3v-22.3c-0.1-1.1,0-2.1,0.3-3.1c0.2-0.5,0.5-0.9,1-1.2c0.8-0.4,1.6-0.6,2.5-0.5h1.1v-1h-14.1l-9.4,22.3
	L175.3,260.3z M313.7,293.3c-0.8,0-1.6-0.2-2.3-0.5c-0.5-0.2-0.9-0.7-1.2-1.2c-0.3-1.1-0.4-2.1-0.3-3.2V266c-0.1-1.1,0-2.1,0.3-3.2
	c0.2-0.5,0.6-0.9,1.1-1.2c0.8-0.4,1.6-0.6,2.4-0.5h1.2v-1h-18v1h1.2c0.8,0,1.6,0.2,2.3,0.5c0.5,0.3,0.8,0.7,1.1,1.2
	c0.3,1.1,0.4,2.1,0.3,3.2v22.3c0.1,1.1,0,2.1-0.3,3.1c-0.2,0.5-0.5,0.9-1,1.2c-0.7,0.4-1.6,0.6-2.4,0.5h-1.2v1h17.9v-1H313.7z
	 M360,262.1h3.4c1.8,0,3.7,0.1,5.5,0.3c1.6,0.4,3,1.2,4.2,2.4c1.1,1.5,1.8,3.2,1.9,5.1h1.1v-9.7h-29.2v1h1.2c0.8,0,1.6,0.2,2.3,0.5
	c0.5,0.2,0.9,0.7,1.2,1.2c0.3,1.1,0.4,2.1,0.3,3.2v22.4c0.1,1.1,0,2.1-0.3,3.1c-0.2,0.5-0.5,0.9-1,1.2c-0.7,0.4-1.6,0.6-2.4,0.5
	h-1.2v1.2h18v-1h-1.2c-0.8,0-1.6-0.2-2.3-0.6c-0.5-0.3-0.9-0.7-1.2-1.2c-0.3-1.1-0.4-2.1-0.3-3.2v-10.4h1.1c1.7,0,3.4,0.5,4.9,1.5
	c1.7,1.7,2.7,4,2.6,6.4h0.8v-17h-0.8c-0.1,1.5-0.6,3-1.3,4.3c-0.6,1-1.5,1.8-2.5,2.3c-1.2,0.5-2.5,0.7-3.8,0.6h-1v-13.9V262.1z
	 M408.6,260.4h-12.2v1c0.8-0.1,1.6,0.1,2.4,0.4c0.8,0.4,1.4,1,2,1.7l0.8,0.9v23.9c0.2,1.3-0.2,2.7-1.1,3.8c-1.1,0.9-2.5,1.3-4,1.2
	v1.1h12.3v-1h-0.8c-1.1,0-2.2-0.4-3.1-1.1c-1.1-1-1.6-2.5-1.4-4v-21.6l23.4,28.3h0.9v-28.3c-0.1-1.1,0.1-2.3,0.4-3.3
	c0.3-0.6,0.7-1.1,1.2-1.4c0.9-0.5,1.9-0.7,2.9-0.8v-1h-11.5v1c1.5-0.2,3,0.4,4.1,1.4c0.7,1.2,1,2.7,0.9,4.1v14.6l-17.1-21V260.4z"/>
<path id="XMLID_1_" d="M19.4,249.9v1.2c-1.8,0.3-3.3,1.2-4.5,2.6c-1.6,2.4-3.1,5-4.2,7.7l-15.5,33.9h-1.1l-15.4-35.2
	c-1-2.6-2.2-5.1-3.8-7.4c-1-0.9-2.2-1.4-3.6-1.4V250h21.7v1.2h-0.8c-1.4-0.1-2.8,0.1-4,0.7c-0.5,0.3-0.8,0.8-0.8,1.4
	c0,0.5,0.1,0.9,0.2,1.4c0.2,0.6,0.8,1.9,1.8,4.3l9.6,22.1l9-19.5c0.7-1.5,1.4-3.1,1.9-4.7c0.2-0.7,0.3-1.4,0.3-2.1
	c0-0.6-0.2-1.2-0.5-1.7c-0.4-0.5-0.9-0.9-1.5-1.2c-1.2-0.4-2.5-0.6-3.8-0.5v-1.3h14.8V249.9z M47.1,262.2h3.6c1.8-0.1,3.7,0,5.5,0.4
	c1.5,0.4,2.8,1.2,3.8,2.4c1.1,1.6,1.8,3.4,2.1,5.3h1v-10H33.9v1h1.2c1-0.1,1.9,0.2,2.8,0.7c0.5,0.4,0.8,0.8,1,1.4
	c0.1,0.9,0.1,1.8,0,2.7v22.4c0.1,1.1,0,2.1-0.3,3.1c-0.2,0.5-0.5,0.9-1,1.2c-0.8,0.4-1.6,0.6-2.4,0.5h-1.2v1.2h29.9l1.5-11h-1
	c-0.6,2.7-2.1,5.1-4.2,6.8c-2.3,1.5-5,2.3-7.8,2.1h-2c-0.7,0-1.5-0.1-2.2-0.4c-0.4-0.2-0.7-0.5-0.9-1c-0.2-1.1-0.2-2.3-0.2-3.5v-9.6
	c1.3-0.1,2.6,0.1,3.8,0.5c1,0.6,1.8,1.4,2.3,2.5c0.7,1.5,1.2,3.1,1.3,4.7h1v-17.8h-1c-0.1,2.1-0.7,4.2-1.8,6c-1.1,1.4-2.9,2.2-4.8,2
	h-0.6v-13.7L47.1,262.2z M96.3,260.4H65.6v9.2h1c0.2-2.2,1.2-4.2,2.7-5.8c1.5-1.1,3.3-1.6,5.1-1.4h2.5v26.2c0.1,1.1,0,2.1-0.3,3.1
	c-0.3,0.5-0.6,0.9-1.1,1.2c-0.7,0.4-1.6,0.6-2.4,0.6h-1.2v1.2h18.3v-1h-1.2c-0.8,0-1.6-0.2-2.4-0.5c-0.5-0.3-0.9-0.7-1.2-1.2
	c-0.3-1.1-0.5-2.2-0.4-3.3v-26.2h2.6c1.1-0.1,2.3,0.1,3.3,0.4c1.1,0.5,2,1.3,2.8,2.2c0.9,1.4,1.5,2.9,1.9,4.5h0.9v-9.3V260.4z
	 M137.3,282.7l5.3-11.7l5.2,11.7H137.3z M150.5,288.8c0.4,1.1,0.8,1.8,0.8,1.8c0,0.3,0,0.7,0,1c0,0.5-0.2,0.9-0.5,1.2
	c-0.9,0.4-1.8,0.6-2.7,0.5h-0.7v1H164v-1c-0.9,0.1-1.8-0.3-2.5-0.9c-1.3-1.5-2.2-3.1-2.9-5l-12.4-27.8h-0.4l-12.4,27.2
	c-0.7,1.8-1.7,3.5-2.9,5.1c-0.8,0.8-1.9,1.3-3,1.5v1h11.5v-1c-1.1-0.1-2.3-0.3-3.4-0.7c-0.8-0.4-1.2-1.2-1.2-2.1
	c0.1-0.9,0.4-1.9,0.8-2.7l1.4-3.3h12.2L150.5,288.8z M235.8,270.8V254c2.3-0.1,4.6,0.2,6.8,1c1.3,0.6,2.4,1.5,3.2,2.7
	c0.9,1.4,1.3,3,1.2,4.6c0,1.6-0.4,3.2-1.2,4.6c-0.8,1.2-2,2.2-3.3,2.7c-2.2,0.8-4.5,1.1-6.8,1L235.8,270.8z M235.7,273.1
	c2.6-0.2,5.1,0.1,7.5,1c1.6,0.6,3,1.8,3.9,3.3c1.8,3.1,1.9,6.9,0.2,10.1c-0.8,1.4-2,2.5-3.5,3.2c-1.5,0.8-3.1,1.1-4.8,1.1
	c-0.9,0.1-1.8-0.2-2.6-0.8c-0.6-0.7-0.9-1.6-0.9-2.6L235.7,273.1L235.7,273.1z M247.4,271.5c3-0.5,5.8-1.9,8-4
	c1.5-1.5,2.3-3.4,2.3-5.5c0-2-0.7-4-1.8-5.6c-1.3-1.7-3-3.1-5-3.9c-3.5-1-7.1-1.5-10.7-1.3h-20.9v1.3c1.4-0.1,2.8,0.1,4.1,0.6
	c0.7,0.2,1.2,0.8,1.5,1.4c0.4,1.4,0.6,2.9,0.4,4.4v27.8c0.1,1.5,0,3-0.4,4.4c-0.3,0.6-0.9,1.1-1.5,1.4c-1.3,0.4-2.7,0.6-4.1,0.5v1.2
	h22.3c5,0.3,10-1,14.1-3.9c2.6-1.8,4.1-4.8,4.1-8c0-2.9-1.3-5.6-3.6-7.4C253.5,273.2,250.5,272,247.4,271.5 M272,262.4h2.7
	c2.1-0.2,4.3,0.5,6,1.8c1.3,1.6,2,3.6,1.8,5.7c0,1.5-0.3,2.9-1,4.2c-0.7,1-1.6,1.8-2.7,2.2c-1.7,0.5-3.5,0.7-5.3,0.7h-1.4v-14.9
	L272,262.4z M272.1,279.1h2l11,15.4h11v-1c-0.9-0.1-1.7-0.4-2.4-0.9c-0.8-0.9-1.6-1.8-2.3-2.7l-8.2-11.4c1.8-0.4,3.5-1.2,5-2.4
	c1.8-1.6,2.8-3.9,2.7-6.3c0-2-0.6-3.9-1.8-5.5c-1.2-1.6-2.9-2.7-4.8-3.3c-3-0.7-6.1-0.9-9.2-0.9h-16.1v1c1.1-0.1,2.2,0,3.3,0.4
	c0.5,0.3,0.9,0.7,1.2,1.2c0.3,1.1,0.4,2.3,0.3,3.5v21.9c0.1,1.2,0,2.3-0.3,3.5c-0.2,0.5-0.7,0.9-1.2,1.2c-1,0.4-2.2,0.5-3.3,0.4v1.1
	h17.7v-1c-1.1,0.1-2.2,0-3.2-0.4c-0.5-0.3-0.9-0.7-1.2-1.2c-0.3-1.1-0.4-2.3-0.3-3.5v-9.5V279.1z M328.5,262.2h3.3
	c1.9-0.1,3.7,0,5.5,0.4c1.5,0.4,2.8,1.2,3.8,2.4c1.1,1.6,1.7,3.4,2,5.3h1v-10h-29v1h1.2c1-0.1,1.9,0.2,2.8,0.7
	c0.5,0.3,0.8,0.8,1,1.4c0.1,0.9,0.1,1.8,0,2.7v22.4c0.1,1.1,0,2.1-0.3,3.1c-0.2,0.5-0.5,0.9-1,1.2c-0.7,0.4-1.5,0.6-2.4,0.5h-1.2
	v1.2h29.9l1.5-11h-1c-0.6,2.6-2.1,5-4.2,6.7c-2.3,1.5-5,2.3-7.8,2.1h-2.1c-0.7,0-1.5-0.1-2.1-0.4c-0.4-0.2-0.8-0.5-0.9-1
	c-0.2-1.1-0.2-2.3-0.2-3.5V278c1.3-0.1,2.6,0.2,3.8,0.7c1,0.6,1.8,1.4,2.3,2.5c0.7,1.5,1.2,3.1,1.3,4.7h1v-17.8h-1
	c-0.1,2.1-0.7,4.2-1.9,6c-1.1,1.4-2.9,2.2-4.7,2h-0.7v-13.7L328.5,262.2z M394.8,293.3c-0.8,0-1.6-0.2-2.3-0.5
	c-0.5-0.3-0.9-0.7-1.2-1.2c-0.3-1.1-0.4-2.1-0.3-3.2V266c-0.1-1.1,0-2.1,0.3-3.2c0.3-0.5,0.6-0.9,1.1-1.2c0.7-0.4,1.6-0.6,2.4-0.5
	h1.2v-1h-18v1h1.2c0.8,0,1.6,0.2,2.3,0.5c0.5,0.3,0.9,0.7,1.2,1.2c0.3,1.1,0.4,2.1,0.3,3.2v22.3c0.1,1.1,0,2.1-0.3,3.1
	c-0.2,0.5-0.5,0.9-1,1.2c-0.7,0.4-1.6,0.6-2.4,0.5h-1.3v1h18v-1H394.8z M464.8,259.6h-1.1c-0.1,0.7-0.5,1.4-1.1,1.9
	c-0.3,0.3-0.8,0.5-1.3,0.5c-1-0.2-2.1-0.6-3-1c-1.2-0.5-2.4-0.9-3.7-1.2c-1.5-0.3-3.1-0.5-4.6-0.4c-5.1-0.2-10,1.7-13.7,5.3
	c-3.5,3.4-5.6,8.1-5.5,12.9c0,2.7,0.6,5.4,1.9,7.8c1,1.8,2.3,3.5,3.9,4.9c1.7,1.5,3.6,2.6,5.7,3.4c2.6,1,5.4,1.4,8.2,1.3
	c2.5,0,5-0.2,7.4-0.8c2.4-0.4,4.7-1.2,6.9-2.2v-7c0-0.8,0-1.6,0.2-2.4c0.2-0.6,0.6-1,1.2-1.3c0.9-0.4,1.8-0.6,2.7-0.5v-1h-16.8v1
	h0.8c0.8,0,1.5,0.1,2.2,0.4c0.5,0.2,0.9,0.6,1.2,1.1c0.3,0.8,0.4,1.7,0.3,2.6v7.1c-1.1,0.3-1.9,0.5-2.7,0.8
	c-0.9,0.1-1.7,0.2-2.6,0.2c-2.2,0.1-4.3-0.5-6.2-1.7c-1.9-1.3-3.2-3.3-3.8-5.5c-0.8-2.8-1.2-5.6-1.2-8.5c0-2.7,0.3-5.3,1.1-7.9
	c0.6-2.3,1.9-4.4,3.7-5.9c1.8-1.5,4.1-2.2,6.5-2.2c2.7,0,5.3,0.9,7.4,2.6c2.4,1.9,4.1,4.5,5.1,7.4h1v-12L464.8,259.6z"/>
<g id="XMLID_24_">
	<path id="XMLID_77_" class="st0" d="M-91,247.3c-3,6.6-4.6,13.8-4.7,21.1c0.1,5.4,1,10.7,2.7,15.8c0.5,1.7,1.1,3.3,1.8,4.9
		c0.1,0.1,0.1,0.3,0.2,0.4c3-6.6,4.6-13.8,4.8-21.1c-0.1-5.4-1-10.7-2.7-15.8c-0.7-2.1-1.4-3.8-1.8-4.8
		C-90.9,247.3-91,247.3-91,247.3"/>
	<path id="XMLID_79_" class="st1" d="M-89.5,286.5c0,2-0.7,3.6-1.6,3.6c-0.9,0-1.6-1.6-1.6-3.6c0-2,0.8-3.6,1.6-3.6
		S-89.5,284.5-89.5,286.5 M-103.5,256.5l7.3,6.3l2.6-12.5l2.6-5.7l-4.8,2.1L-103.5,256.5z M-111.6,266.1l6.9,2.6l0.8-11.8
		L-111.6,266.1z M-122,278.3l1.8,0.4l10.5-1.2l-1.2-5.1l-0.8-6.3l-9.8,11.4L-122,278.3z M-131,289.2l0.9,1.9l1.8-0.7l12.7-3.8
		l-3.1-3.5l-2.2-5.1L-131,289.2z M-86.5,246.8l-4.8-2.1l2.6,5.7l2.6,12.5l7.3-6.3L-86.5,246.8z M-78.2,256.9l0.8,11.8l6.9-2.6
		L-78.2,256.9z M-60.8,277.6l-9.8-11.4l-0.8,6.3l-1.2,5.1l10.5,1.2l1.9-0.4L-60.8,277.6z M-61.2,278l-2.2,5.1l-3.1,3.5l12.7,3.8
		l1.8,0.7l0.9-1.9L-61.2,278z"/>
	<path id="XMLID_78_" class="st0" d="M-128.4,291.5c4.9-3.8,10.8-6,16.9-6.2c4.3,0.1,8.6,1.3,12.3,3.4c1.3,0.7,2.6,1.5,3.8,2.4
		c0.2,0.2,0.5,0.3,0.7,0.5c-4.9,3.8-10.8,6-17,6.3c-4.3-0.1-8.6-1.3-12.3-3.4c-1.3-0.7-2.6-1.5-3.8-2.4
		C-127.9,291.9-128.2,291.7-128.4,291.5 M-110.8,267v0.6c0,1.2,0.2,2.5,0.4,3.7c0.5,3.6,2,7,4.1,10c3.3,3.9,7.8,6.6,12.8,7.8v-0.7
		c0-1.3-0.2-2.5-0.5-3.7c-0.5-3.6-2-7-4.1-9.9C-101.4,270.9-105.9,268.2-110.8,267 M-71.1,267c-5,1.2-9.4,4-12.8,7.8
		c-2.2,2.9-3.6,6.3-4.1,9.9c-0.2,1.6-0.4,2.9-0.4,3.7v0.6c5-1.2,9.4-3.9,12.8-7.8c2.2-2.9,3.6-6.4,4.1-10c0.2-1.6,0.4-2.7,0.4-3.7
		V267z M-87.3,291.5c4.8,3.7,10.7,5.9,16.8,6.2c4.4-0.1,8.6-1.3,12.4-3.4c1.3-0.7,2.6-1.5,3.8-2.4c0.3-0.2,0.4-0.4,0.7-0.5
		c-4.8-3.8-10.7-5.9-16.8-6.3c-4.4,0.1-8.6,1.3-12.4,3.4c-1.3,0.7-2.6,1.5-3.8,2.4C-86.8,291.2-87,291.4-87.3,291.5"/>
	<path id="XMLID_36_" class="st2" d="M-54.3,291.9c-1.2,0.9-2.5,1.7-3.8,2.4c-3.8,2.1-8.1,3.3-12.4,3.4c-5.6-0.3-11.1-2.2-15.7-5.5
		l2.6,0.2h1.7c3.1,0.1,6.2-0.3,9.1-1.4c2.7-1.2,5.1-2.9,7.1-5.1c4.4,1.1,8.5,3,12.1,5.7L-54.3,291.9z M-91,289.2
		c-0.1-0.1-0.1-0.3-0.2-0.4c-0.3-0.6-0.5-1.1-0.7-1.7c0.4-1.1,0.7-2.3,1-3.4c0.2,1.2,0.5,2.4,0.9,3.5C-90.4,288-90.8,288.7-91,289.2
		L-91,289.2z M-111.6,297.8c-4.3-0.1-8.6-1.3-12.3-3.4c-1.3-0.7-2.6-1.5-3.8-2.4l-0.7-0.5c3.5-2.7,7.6-4.7,11.9-5.7
		c2,2.2,4.4,3.9,7.1,5.1c2.9,1.2,6,1.8,9.1,1.8c0.6,0,1.1,0,1.7,0l2.7-0.2C-100.5,295.7-106,297.6-111.6,297.8L-111.6,297.8z
		 M-128.3,286.9l6.9-8.2c0,0.1,0,0.2,0,0.2c1.1,2,2.3,3.8,3.8,5.5c-4.3,1.2-8.4,3.2-12,6C-130,289.6-129.7,288.5-128.3,286.9
		 M-99.4,252.1c0.3-0.2,0.4-0.6,0.7-0.9c1.6-1.9,4.1-5.2,6.7-5.7c-2.4,5-4.1,10.3-4.8,15.8c-1.8-1.9-3.8-3.6-6-5L-99.4,252.1z
		 M-83.6,251.2c0.2,0.4,0.5,0.6,0.7,0.9l3.9,4.6c-2.3,1.6-4.4,3.4-6.3,5.5c-0.8-5.7-2.5-11.3-4.9-16.5
		C-87.6,246.2-85.1,249.3-83.6,251.2 M-70.4,283.8c-2.3,0-4.5,0.3-6.7,1c0.9-0.8,1.7-1.8,2.5-2.7c0.8-1.1,1.6-2.4,2.2-3.6
		c1.6-0.2,3.2-0.2,4.8-0.2c1.7,0.1,3.4,0.3,5,0.7l-0.3,0.5c-0.6,1.1-1.3,2.1-2.1,3.1l-1.2,1.5C-67.6,283.9-69,283.8-70.4,283.8
		L-70.4,283.8z M-82.8,288.7c3.8-2.1,8.1-3.3,12.4-3.4c1,0,2,0.1,3,0.3c-1.8,1.7-3.8,3.1-6,4.1c-3.2,1.3-6.6,1.8-10.1,1.6
		c-1-0.1-2-0.2-2.9-0.4C-85.2,290.1-84,289.3-82.8,288.7L-82.8,288.7z M-78.1,262.8c0.2,1.8,0.3,3.5,0.2,5.3
		c-2.8,1.5-5.3,3.5-7.3,5.9c0.2-2,0.4-3.9,0.4-5.9c0-1.4,0-2.7-0.2-4.1c1.8-2.1,3.8-4,6-5.6c0.1,0.2,0.1,0.3,0.2,0.5
		C-78.5,260.1-78.2,261.4-78.1,262.8 M-76.2,267.3c0.1-3-0.3-5.9-1.1-8.8l5.9,7.1C-73.2,266-74.8,266.6-76.2,267.3L-76.2,267.3z
		 M-69.7,267.7l8.5,10.2c-2-0.6-4.1-0.9-6.2-1c-1.4-0.2-2.8-0.2-4.2,0C-70.5,274-69.9,270.9-69.7,267.7L-69.7,267.7z M-78.1,278.7
		c-0.7,0.4-1.4,0.7-2,1c1.1-1.6,2-3.4,2.7-5.2c0.6-1.8,1-3.6,1.1-5.5c1.7-0.8,3.5-1.5,5.3-2v0.6c0,1.2-0.1,2.5-0.4,3.7
		c-0.3,2.1-0.9,4.1-1.8,6C-74.9,277.5-76.5,278-78.1,278.7 M-87.4,288.7c0.4-0.7,0.9-1.3,1.4-1.9c2.2-2.9,5.1-5.3,8.5-6.9
		c1.1-0.5,2.3-0.8,3.4-1.1c-0.5,0.8-1,1.6-1.6,2.4c-3.1,3.6-7.2,6.2-11.8,7.5L-87.4,288.7z M-87.9,285.7c1-2.7,1.8-5.4,2.3-8.2
		c0.5-1,1.1-1.9,1.8-2.7c1.6-2,3.5-3.7,5.8-5c-0.2,1.5-0.5,2.9-1,4.3c-1.8,4.7-5,8.7-9,11.7L-87.9,285.7z M-88.7,270.7
		c0.6-1.7,1.4-3.4,2.4-5c0.1,0.8,0.1,1.6,0,2.4c0,3-0.3,6-0.9,8.9c-1.1,2.1-1.9,4.4-2.3,6.8c0-0.5-0.2-1.2-0.4-1.9
		c-0.6-3.7-0.2-7.6,1-11.2L-88.7,270.7z M-92.4,284c-0.4-2.4-1.2-4.7-2.3-6.8c-0.6-3-0.9-6-0.9-9v-3.3c1.2,1.7,2.1,3.5,2.7,5.5
		c1.1,3.7,1.4,7.7,0.6,11.5c-0.1,0.7-0.2,1.5-0.3,2.2L-92.4,284z M-111.6,285.2c4.3,0.1,8.6,1.3,12.3,3.4c1.2,0.7,2.4,1.4,3.5,2.2
		c-1,0.2-2,0.3-3,0.4c-3.4,0.2-6.9-0.3-10-1.6c-2.2-0.9-4.2-2.3-6-3.9C-113.8,285.5-112.7,285.3-111.6,285.2L-111.6,285.2z
		 M-110.3,277c-1.4-0.2-2.9-0.2-4.3,0c-2.1,0.1-4.2,0.5-6.3,1l8.7-10.3C-112.1,270.9-111.5,274.1-110.3,277L-110.3,277z
		 M-105.8,267.2c-1.5-0.7-3.1-1.2-4.8-1.7l6.1-7.2C-105.4,261.2-105.8,264.3-105.8,267.2L-105.8,267.2z M-97,273.9
		c-2-2.5-4.5-4.5-7.4-6c0-1.8,0.1-3.7,0.4-5.5c0.2-1.3,0.5-2.6,0.9-3.9c0.1-0.2,0.1-0.4,0.2-0.6c2.2,1.5,4.2,3.3,5.9,5.3
		c0,1.6-0.2,3.2-0.2,4.9c0,1.8,0.2,4.1,0.4,6C-96.8,274.1-96.9,274-97,273.9L-97,273.9z M-94,285.9c-4.2-3-7.5-7.1-9.4-11.9
		c-0.5-1.4-0.8-2.8-0.9-4.3c2.4,1.3,4.5,3.1,6.2,5.2c0.8,0.9,1.4,1.9,1.8,3C-95.6,280.6-94.9,283.3-94,285.9L-94,285.9z M-104.5,280
		c3.3,1.6,6.3,3.9,8.5,6.9l1.4,1.9c-4.5-1.3-8.5-3.9-11.6-7.5c-0.6-0.7-1.1-1.5-1.6-2.4C-106.7,279.2-105.6,279.6-104.5,280
		L-104.5,280z M-105.7,269c0.1,1.9,0.5,3.8,1,5.7c0.6,1.8,1.5,3.5,2.6,5.1c-0.6-0.3-1.2-0.6-1.8-0.9c-1.5-0.6-3.1-1.1-4.7-1.4
		c-0.8-1.9-1.4-3.9-1.8-6c-0.3-1.6-0.4-2.9-0.4-3.7v-0.6C-109.1,267.6-107.4,268.2-105.7,269L-105.7,269z M-117.2,282.7
		c-0.8-1-1.5-2-2.1-3.1l-0.3-0.5c1.6-0.4,3.3-0.7,5-0.7c1.6-0.1,3.3,0,4.9,0.2c0.6,1.3,1.3,2.5,2.2,3.6c0.8,1,1.6,1.9,2.5,2.7
		c-2.2-0.6-4.4-1-6.7-1c-1.5,0-2.9,0.1-4.3,0.4C-116.4,283.7-116.8,283.3-117.2,282.7 M-90.2,270.3c-0.2,0.6-0.4,1.2-0.5,1.8
		c-0.2-0.7-0.4-1.4-0.6-2.2c-0.9-2.6-2.3-5-4-7.1c0.7-5.4,2.2-10.7,4.4-15.7c0,0.2,0.2,0.3,0.2,0.5c0.4,1,1.1,2.7,1.8,4.8
		c1.2,3.6,2,7.4,2.5,11.2C-88.1,265.5-89.4,267.8-90.2,270.3 M-52.5,290.7c-3.6-2.8-7.7-4.9-12.1-6.1c1.5-1.7,2.8-3.6,3.8-5.6v-0.3
		l6.9,8.2C-52.6,288.4-51.9,289.4-52.5,290.7 M-52.8,286l-17.1-20.3c0-0.1-0.1-0.2-0.2-0.2l-11.9-14.3l-0.7-0.9
		c-2-2.4-5-6.2-8.5-6.2c-3.4,0-6.5,3.8-8.5,6.2c-0.2,0.4-0.5,0.6-0.7,0.9l-29,34.7c-0.9,1-2.7,3.3-1.2,5.7c0,0.1,0.1,0.2,0.2,0.2
		c5.2,4.5,11.8,7.1,18.6,7.5c6.8-0.3,13.3-2.9,18.5-7.2c0.1-0.1,0.1-0.2,0.2-0.3c0.3,0,0.4,0,0.5-0.2c0.2,0,0.3-0.2,0.3-0.4
		c0.1-0.1,0.1-0.3,0-0.4l0,0c0.1,0.2,0.2,0.3,0.3,0.4c0.1,0.2,0.3,0.3,0.5,0.4c0.2,0,0.5-0.1,0.5-0.4c0-0.1,0-0.1,0-0.2
		c0.1,0.2,0.2,0.3,0.4,0.4l0.6,0.2c0,0.1,0.1,0.2,0.2,0.3c5.4,4.4,12.1,7,19.1,7.3c6.8-0.3,13.3-2.8,18.5-7.2
		C-49.9,289.6-51.6,287.5-52.8,286"/>
	<path id="XMLID_16_" class="st3" d="M-119.7,279.1c1.6-0.4,3.3-0.7,5-0.8c3.4-0.2,6.9,0.3,10.1,1.6c3.3,1.6,6.2,3.9,8.4,6.9
		c1,1.3,1.7,2.4,2.1,3.2l0.3,0.5c-1.7,0.4-3.3,0.6-5,0.7c-3.4,0.2-6.8-0.3-10-1.6c-3.3-1.6-6.2-3.9-8.5-6.9c-0.8-1-1.5-2-2.1-3.1
		L-119.7,279.1 M-102.8,257.9c-0.1,0.2-0.2,0.4-0.2,0.6c-0.4,1.3-0.7,2.6-0.9,3.9c-0.7,3.8-0.5,7.8,0.6,11.5
		c2,5.1,5.6,9.4,10.1,12.4c0.1-0.2,0.2-0.4,0.2-0.6c0.4-1.3,0.7-2.6,0.9-3.9c0.7-3.8,0.5-7.8-0.6-11.5
		C-94.8,265.3-98.3,261-102.8,257.9 M-79,258.5c-4.4,3-7.9,7.3-9.9,12.3c-1.2,3.6-1.5,7.5-0.9,11.3c0.2,1.3,0.5,2.5,0.8,3.8
		c0,0.2,0.1,0.4,0.2,0.5c4.4-3.1,7.8-7.3,9.9-12.3c1.2-3.6,1.4-7.5,0.8-11.3c-0.2-1.3-0.4-2.5-0.8-3.8
		C-78.9,258.8-79,258.6-79,258.5 M-88.5,290.5c5,1.2,10.3,0.9,15.1-0.9c3.3-1.6,6.2-3.9,8.4-6.9c0.8-1,1.5-2,2.1-3.1l0.3-0.5
		c-5-1.2-10.2-0.9-15,0.9c-3.3,1.5-6.3,3.9-8.5,6.9c-0.8,1-1.5,2-2.1,3.1L-88.5,290.5z"/>
	<path id="XMLID_31_" class="st4" d="M-91,304.9c1.5-1.8,2.3-4,2.5-6.3v-0.2c-0.2-1.2-0.5-2.2-0.7-3c-0.4-1.1-1-2.1-1.8-3
		c-0.7,0.9-1.3,1.9-1.8,3c-0.2,1-0.4,2-0.7,3v0.2C-93.3,300.9-92.4,303.1-91,304.9"/>
	<path id="XMLID_28_" class="st2" d="M-92.2,298.6L-92.2,298.6c0,1.4,0.4,2.8,1.1,4.1c0.7-1.2,1.1-2.6,1.2-4c-0.3-1-0.4-1.9-0.6-2.7
		c-0.2-0.4-0.4-0.8-0.6-1.1l-0.5,1.1C-91.7,296.8-91.9,297.7-92.2,298.6 M-91,306.2L-91,306.2c-0.4,0-0.7-0.2-1-0.4
		c-1.7-2-2.6-4.4-2.7-7v-0.6c0.2-1,0.4-1.9,0.6-2.7c0-0.1,0-0.2,0-0.3c0.5-1.3,1.3-2.5,2.2-3.5c0.3-0.3,0.6-0.4,1-0.4
		c0.4,0,0.7,0.2,1,0.4c0.9,1,1.5,2.1,2,3.3v0.3c0.2,1,0.4,1.9,0.6,2.7v0.5c-0.2,2.6-1.1,5.1-2.7,7.1C-90.3,306-90.6,306.1-91,306.2"
		/>
	<path id="XMLID_27_" class="st1" d="M-91,304.3c1.5-1.8,2.3-4,2.5-6.2v-0.3c-0.2-1.1-2.5-7.7-2.5-7.7s-2.1,6.5-2.4,7.6v0.3
		C-93.3,300.3-92.4,302.5-91,304.3"/>
	<path id="XMLID_11_" class="st3" d="M-98,298.8c-0.1-1.5,0.4-3,1.2-4.2c0.9-1.2,2.2-2,3.7-2.3c0.1,1.5-0.4,3-1.2,4.2
		C-95.2,297.6-96.5,298.4-98,298.8 M-83.6,298.8c0.1-1.5-0.4-3-1.2-4.2c-0.9-1.2-2.2-2-3.7-2.3c-0.1,1.5,0.4,3,1.2,4.2
		C-86.4,297.6-85.1,298.4-83.6,298.8"/>
</g>
</svg>
